<svg width="116" height="27" viewBox="0 0 116 27" fill="none" xmlns="http://www.w3.org/2000/svg">
<path d="M6.73294 0.818244V27H0.481506V0.818244H6.73294ZM20.7877 12.0682V27H12.4525V0.818244H20.3787V5.62499H20.6683C21.2479 4.02269 22.2366 2.76704 23.6343 1.85789C25.032 0.937494 26.6968 0.477295 28.6287 0.477295C30.4695 0.477295 32.0661 0.892045 33.4183 1.72155C34.782 2.5398 35.8389 3.68744 36.5889 5.16479C37.3503 6.63074 37.7253 8.34659 37.7139 10.3125V27H29.3787V11.9488C29.3899 10.4943 29.0206 9.35789 28.2706 8.53979C27.532 7.72154 26.5036 7.31249 25.1854 7.31249C24.3105 7.31249 23.5377 7.50569 22.8673 7.8921C22.2082 8.2671 21.6969 8.8068 21.3331 9.51134C20.9809 10.2159 20.7991 11.0682 20.7877 12.0682ZM52.6495 12.0682V27H44.3143V0.818244H52.2405V5.62499H52.5303C53.1099 4.02269 54.0985 2.76704 55.4962 1.85789C56.8939 0.937494 58.5586 0.477295 60.4905 0.477295C62.3314 0.477295 63.928 0.892045 65.2803 1.72155C66.6439 2.5398 67.7007 3.68744 68.4507 5.16479C69.2121 6.63074 69.5871 8.34659 69.5757 10.3125V27H61.2405V11.9488C61.2519 10.4943 60.8826 9.35789 60.1326 8.53979C59.394 7.72154 58.3656 7.31249 57.0474 7.31249C56.1723 7.31249 55.3996 7.50569 54.7291 7.8921C54.07 8.2671 53.5587 8.8068 53.1951 9.51134C52.8427 10.2159 52.6609 11.0682 52.6495 12.0682ZM100.636 0.818244L91.6536 27H82.108L73.1421 0.818244H81.9205L86.7444 18.8523H87.0171L91.858 0.818244H100.636ZM110.863 0.818244V27H104.612V0.818244H110.863Z" fill="#4F524A"/>
<path d="M11.2329 0.818244V27H4.98151V0.818244H11.2329ZM25.2877 12.0682V27H16.9525V0.818244H24.8787V5.62499H25.1683C25.7479 4.02269 26.7366 2.76704 28.1343 1.85789C29.532 0.937494 31.1968 0.477295 33.1287 0.477295C34.9695 0.477295 36.5661 0.892045 37.9183 1.72155C39.282 2.5398 40.3389 3.68744 41.0889 5.16479C41.8503 6.63074 42.2253 8.34659 42.2139 10.3125V27H33.8787V11.9488C33.8899 10.4943 33.5206 9.35789 32.7706 8.53979C32.032 7.72154 31.0036 7.31249 29.6854 7.31249C28.8105 7.31249 28.0377 7.5057 27.3673 7.8921C26.7082 8.2671 26.1969 8.80679 25.8331 9.51134C25.4809 10.2159 25.2991 11.0682 25.2877 12.0682ZM57.1495 12.0682V27H48.8143V0.818244H56.7405V5.62499H57.0303C57.6099 4.02269 58.5985 2.76704 59.9962 1.85789C61.3939 0.937494 63.0586 0.477295 64.9905 0.477295C66.8314 0.477295 68.428 0.892045 69.7803 1.72155C71.1439 2.5398 72.2007 3.68744 72.9507 5.16479C73.7121 6.63074 74.0871 8.34659 74.0757 10.3125V27H65.7405V11.9488C65.7519 10.4943 65.3826 9.35789 64.6326 8.53979C63.894 7.72154 62.8656 7.31249 61.5474 7.31249C60.6723 7.31249 59.8996 7.5057 59.2291 7.8921C58.57 8.2671 58.0587 8.80679 57.6951 9.51134C57.3427 10.2159 57.1609 11.0682 57.1495 12.0682ZM105.136 0.818244L96.1536 27H86.608L77.6421 0.818244H86.4205L91.2444 18.8523H91.5171L96.358 0.818244H105.136ZM115.363 0.818244V27H109.112V0.818244H115.363Z" fill="#18DB0B"/>
</svg>
